<!-- Created with PixiEditor (https://pixieditor.net) -->
<svg version="1.1" viewBox="0 0 1920 1080" xmlns="http://www.w3.org/2000/svg">
  <path d="M1329 804.13C1329 804.13 1102 804.13 1102 804.13C1099.81 804 1097.12 803.93 1095 804.13C1088.95 805.69 1073.21 815.65 1067 819.14C1067 819.14 1000 856.42 1000 856.42C991.92 861 974.66 872.24 966 872.79C961.28 873.09 939.14 866.5 933 864.88C933 864.88 865 846.58 865 846.58C865 846.58 827 837.04 827 837.04C817.64 836.66 813.64 840.97 806 845.55C806 845.55 773 864.85 773 864.85C773 864.85 717 897.99 717 897.99C717 897.99 652 936.2 652 936.2C652 936.2 618 956.2 618 956.2C613.31 959.01 604.19 964.94 599 965.36C592.86 965.86 586.1 961.01 581 958.01C581 958.01 545 936.8 545 936.8C545 936.8 467 890.99 467 890.99C467 890.99 419 862.72 419 862.72C419 862.72 388 844.55 388 844.55C380.81 840.24 377.82 836.69 369 837.04C361.94 837.32 335.23 845.28 327 847.71C327 847.71 266 864.15 266 864.15C266 864.15 245 869.71 245 869.71C239.74 871.2 232.41 873.51 227 872.53C222.13 871.65 215.44 867.52 211 865C211 865 190 853.28 190 853.28C190 853.28 114 810.7 114 810.7C105.43 805.99 92.42 800.36 88.61 791C86.98 786.98 87.01 783.23 87 779C87 779 87 539 87 539C87.01 533.92 87.02 529.63 89.56 525C92.73 519.2 97.95 515.75 103 511.79C103 511.79 129 491.79 129 491.79C133 488.64 143.53 481.6 144.69 476.99C146.26 470.69 139.27 459.78 136.22 454C136.22 454 119.75 423 119.75 423C117.92 419.35 115.01 414.74 113.94 411C112.94 407.52 113.01 404.56 113 401C113 401 113 296 113 296C113.02 282.5 118.81 274.06 124.14 262C124.14 262 151.69 201 151.69 201C151.69 201 170.22 160 170.22 160C173.35 153.32 175.82 145.32 182.04 140.8C186.74 137.38 190.59 137.42 196 136.72C196 136.72 222 133.72 222 133.72C222 133.72 289 125.84 289 125.84C289 125.84 326 122.04 326 122.04C337.14 122.49 341.61 128.7 349 136C349 136 359 145.09 359 145.09C359 145.09 371 156.91 371 156.91C371 156.91 444 225.96 444 225.96C444 225.96 477 257 477 257C477 257 498.91 277.08 498.91 277.08C498.91 277.08 510.82 289 510.82 289C512.97 291.42 515.1 295.2 518.09 296.4C520.17 297.23 526.49 297.03 529 297C529 297 571 293.72 571 293.72C571 293.72 598 291.03 598 291.03C598 291.03 624 293.72 624 293.72C624 293.72 667 297 667 297C669.44 297.02 675.82 297.24 677.82 296.4C680.01 295.49 685.76 288.27 688 286C688 286 712 263.09 712 263.09C712 263.09 785 194.04 785 194.04C785 194.04 820 161 820 161C820 161 847 135.83 847 135.83C856.25 127.46 859.23 121.5 873 122.04C873 122.04 907 125.84 907 125.84C907 125.84 973 133.72 973 133.72C973 133.72 1000 136.72 1000 136.72C1004.92 137.36 1008.55 137.32 1012.99 140.14C1020 144.61 1022.86 153.67 1026 161C1026 161 1032.69 175 1032.69 175C1032.69 175 1043.26 199 1043.26 199C1043.26 199 1070.31 259 1070.31 259C1075.73 270.84 1082.98 282.7 1083 296C1083 296 1083 400 1083 400C1082.98 413.47 1078.48 418.59 1072.31 430C1072.31 430 1058.74 456 1058.74 456C1056.18 460.96 1049.63 470.51 1050.19 475.96C1050.7 480.94 1064.7 490.3 1069 493.53C1069 493.53 1094 512.79 1094 512.79C1099.05 516.75 1104.09 519.98 1106.95 526C1109.28 530.89 1109 535.76 1109 541C1109 541 1434 541 1434 541C1434 541 1596 541 1596 541C1596 541 1606.09 539.11 1606.09 539.11C1606.09 539.11 1634 537 1634 537C1634 537 1689 537 1689 537C1689 537 1689 540 1689 540C1689 540 1700 540 1700 540C1702.79 545.28 1706.47 545.91 1711 549.52C1715.02 552.72 1717.97 556.57 1720.54 561C1720.54 561 1725.26 571 1725.26 571C1725.26 571 1740.31 603 1740.31 603C1740.31 603 1779.31 687 1779.31 687C1779.31 687 1800.26 732 1800.26 732C1804.3 740.37 1810.99 753.24 1812.54 762C1813.76 768.92 1812.01 777.93 1808.53 784C1806.77 787.08 1802.45 792.38 1801.59 795C1799.94 800 1803.37 804.52 1802.91 812C1802.41 820.12 1798.48 822.89 1799.23 829C1799.69 832.76 1802.54 837.18 1803.91 841C1805.89 846.53 1806.34 852.17 1805.91 858C1805.51 863.48 1803.67 868.15 1801.24 873C1793.42 888.64 1776.5 898.79 1759 899C1759 899 1750 899 1750 899C1744.28 898.93 1737.33 897.62 1732 895.54C1727.48 893.77 1724.07 891.08 1719 891.08C1713.52 891.08 1708.68 894.86 1703 896.56C1694.21 899.19 1688.96 899.1 1680 899C1674.6 898.93 1669.1 897.93 1664 896.14C1660.43 894.88 1655.6 892.24 1652 892.16C1645.38 891.99 1643.14 897.69 1631 897.99C1626.39 898.1 1622.41 898.02 1618 896.45C1613.99 895.03 1610.42 892.05 1606 892.16C1606 892.16 1586 897.85 1586 897.85C1586 897.85 1550 897.85 1550 897.85C1535.27 897.93 1535.33 892.32 1526 893.11C1519.69 893.64 1514.98 898.84 1502 899C1492.51 899.11 1486.1 899.1 1477 895.54C1472.39 893.73 1464.74 888.35 1461 888.19C1456.41 887.99 1452.13 892.49 1448 894.67C1441.98 897.86 1436.67 898.26 1430 897.96C1418.48 897.44 1416.53 891.67 1409 892.12C1404.99 892.36 1401.7 894.59 1398 895.91C1391.71 898.17 1386.64 898.99 1380 899C1380 899 1373 899 1373 899C1353.56 898.77 1324.69 884.77 1326.09 862C1326.6 853.85 1330.48 850.78 1330.88 845C1330.88 845 1327.04 824 1327.04 824C1327.04 824 1329 804.13 1329 804.13ZM501 302C497.35 294.27 484.53 284.52 478 278C478 278 420 223 420 223C420 223 409 212.91 409 212.91C409 212.91 383 188.09 383 188.09C383 188.09 359 165.99 359 165.99C359 165.99 342.17 149.98 342.17 149.98C339.04 146.75 333.07 140.09 329 138.66C325.63 137.36 320.5 138.29 317 138.66C317 138.66 297 140.85 297 140.85C297 140.85 225 148.93 225 148.93C225 148.93 203 151.83 203 151.83C200.06 152.16 192.68 152.52 190.39 154.02C187.76 155.74 186 161.11 184.7 164C184.7 164 174.9 186 174.9 186C174.9 186 151.14 239 151.14 239C151.14 239 141 261 141 261C141 261 132.14 281 132.14 281C131.05 283.44 128.73 287.43 128.8 290C128.87 292.57 133.35 300.2 134.75 303C134.75 303 150.74 333 150.74 333C150.74 333 170.24 370 170.24 370C170.24 370 181.63 390.37 181.63 390.37C183.66 392.39 190.16 395.33 193 396.75C193 396.75 217 408.27 217 408.27C217 408.27 273 435.78 273 435.78C280.33 439.24 292.7 446.63 300 448C300 448 272 418.96 272 418.96C272 418.96 264.72 411.17 264.72 411.17C264.72 411.17 242.01 388.99 242.01 388.99C242.01 388.99 234.83 381.17 234.83 381.17C234.83 381.17 227.01 373.99 227.01 373.99C227.01 373.99 218.91 365 218.91 365C218.91 365 211.02 356 211.02 356C211.02 356 209.96 346 209.96 346C209.96 346 208.96 338 208.96 338C208.96 338 208.96 329 208.96 329C208.96 329 206.96 300 206.96 300C206.96 300 206.38 288 206.38 288C206.38 288 215.75 267 215.75 267C215.75 267 231.74 234 231.74 234C231.74 234 243.89 208 243.89 208C243.89 208 250.21 198.02 250.21 198.02C250.21 198.02 262 196.91 262 196.91C262 196.91 288 195 288 195C288 195 309 194 309 194C309 194 322 193.13 322 193.13C322 193.13 333 193.13 333 193.13C333 193.13 352 204.58 352 204.58C352 204.58 379 222.66 379 222.66C379 222.66 396 233.52 396 233.52C396 233.52 457 274 457 274C457 274 485 292.34 485 292.34C485 292.34 501 302 501 302ZM897 448C903.54 446.13 920.82 436.81 928 433.25C928 433.25 979 408.25 979 408.25C979 408.25 1005 395.48 1005 395.48C1007.79 394.03 1012.26 392.49 1014.35 390.36C1014.35 390.36 1023.86 373 1023.86 373C1023.86 373 1035.31 351 1035.31 351C1035.31 351 1046.25 331 1046.25 331C1046.25 331 1059.31 306 1059.31 306C1061.06 302.76 1066.04 294.26 1066.48 291C1066.95 287.63 1062.49 278.6 1060.99 275C1060.99 275 1042.42 234 1042.42 234C1042.42 234 1018.58 181 1018.58 181C1018.58 181 1010.42 163 1010.42 163C1009.42 160.91 1007.48 156 1006.03 154.57C1004.24 152.81 998.58 152.44 996 152.16C996 152.16 972 149 972 149C972 149 898 140.84 898 140.84C891.86 140.18 871.66 137.05 867 138.56C862.57 140 858.95 144.41 855.72 147.58C855.72 147.58 837 165 837 165C837 165 776 222.99 776 222.99C776 222.99 766 232.04 766 232.04C766 232.04 719 276.96 719 276.96C713.28 282.43 697.24 296.05 694 302C700.51 299.93 706.37 295.16 712 291.34C712 291.34 734 277 734 277C734 277 826 216.33 826 216.33C826 216.33 851 199.81 851 199.81C853.59 198.2 859.52 194.11 862 193.19C864.21 192.7 871.29 192.97 874 193.19C874 193.19 891 194 891 194C891 194 901 194.91 901 194.91C901 194.91 932 196.72 932 196.72C935.43 197.12 943.23 196.5 945.61 198.02C947.95 199.51 950.45 205.38 951.75 208C951.75 208 964.24 234 964.24 234C964.24 234 980.26 268 980.26 268C982.39 272.39 988.74 283.99 989.38 288C989.38 288 987 326 987 326C987 326 987 335 987 335C987 335 985.28 349 985.28 349C984.97 351.63 985.17 354.61 983.98 357C982.27 360.4 968.61 373.39 965 377C965 377 914.72 428 914.72 428C908.36 435.11 901.16 438.78 897 448ZM830 341C830 341 814 340 814 340C814 340 799 339 799 339C799 339 778 338 778 338C778 338 765 337 765 337C765 337 746 335.47 746 335.47C746 335.47 692 315.6 692 315.6C692 315.6 676 313.83 676 313.83C676 313.83 664 312.17 664 312.17C664 312.17 645 310.91 645 310.91C645 310.91 596 307.04 596 307.04C596 307.04 588 307.91 588 307.91C588 307.91 551 310.91 551 310.91C551 310.91 504 315.51 504 315.51C504 315.51 461 331.42 461 331.42C461 331.42 450 335.39 450 335.39C450 335.39 430 337 430 337C430 337 414 338 414 338C414 338 398 339 398 339C398 339 365 341 365 341C365 341 389 365 389 365C389 365 346 388.14 346 388.14C346 388.14 305 410 305 410C309.18 418.82 327.7 430.52 335 440C335 440 311 449.4 311 449.4C311 449.4 265 468.42 265 468.42C265 468.42 239 479 239 479C241.21 485.58 254.13 491.74 260 495.67C260 495.67 314 533 314 533C314 533 287 535.83 287 535.83C287 535.83 215 543 215 543C219.62 549.15 240.53 563.87 248 569.65C248 569.65 292.99 604.52 292.99 604.52C304.32 613.15 318.02 623.11 328 633C328 633 295 654 295 654C295 654 295 656 295 656C295 656 311 665.13 311 665.13C311 665.13 349 687.23 349 687.23C349 687.23 370 699 370 699C370 699 370 586 370 586C369.98 574.54 364.54 561.8 360.69 551C359.61 547.96 357.43 539.73 355.3 537.82C352.92 535.7 343.35 535.07 340 535C340 535 355.47 516 355.47 516C355.47 516 360.07 508 360.07 508C360.07 508 353 495 353 495C353 495 332 464 332 464C332 464 388 484 388 484C388 484 398 467 398 467C398 467 419.04 488.86 419.04 488.86C419.04 488.86 450 497.37 450 497.37C450 497.37 504 511 504 511C504 511 509 499 509 499C509 499 527.15 542 527.15 542C529.41 547.26 531.14 555.06 537 557C537 557 542 546 542 546C542 546 545 557 545 557C545 557 651 557 651 557C651 557 654 545 654 545C654.86 547.48 657.59 557.88 661.55 555.83C663.89 554.62 667.62 543.87 668.85 541C668.85 541 687 500 687 500C687 500 692 511 692 511C692 511 747 496.87 747 496.87C747 496.87 776.91 488.86 776.91 488.86C776.91 488.86 797 467 797 467C798.98 470.54 804.8 481.36 808.17 482.8C811.34 484.14 819.6 480.16 823 479C823 479 864 464 864 464C864 464 842 496 842 496C842 496 835.11 508 835.11 508C835.11 508 840.24 515.91 840.24 515.91C840.24 515.91 855 535 855 535C851.49 535.08 843.16 535.66 840.5 537.85C837.52 540.3 833.93 552.92 833 557C833 557 940 557 940 557C940 557 963 556.49 963 556.49C963 556.49 973 550.37 973 550.37C973 550.37 980 543 980 543C980 543 924 537.17 924 537.17C924 537.17 881 532 881 532C886.16 530 890.33 526.35 895 523.42C895 523.42 929 500.34 929 500.34C936.52 495.23 951.7 486.35 957 480C957 480 916 462.57 916 462.57C916 462.57 860 439 860 439C860 439 883 418.92 883 418.92C885.18 417.08 890.26 413.68 888.83 410.32C887.91 408.14 884.03 406.38 882 405.37C882 405.37 867 397.25 867 397.25C867 397.25 831 378.14 831 378.14C831 378.14 807 365 807 365C812.24 359.76 827.42 346.44 830 341ZM295 453C295 453 231 461.87 231 461.87C231 461.87 198 466.58 198 466.58C198 466.58 184.04 468.64 184.04 468.64C180.26 469.88 166.88 480.75 163 483.79C163 483.79 120 517.42 120 517.42C116.77 519.94 104.79 528.38 103.57 531.29C102.87 532.97 103 536.13 103 538C103 538 103 663 103 663C103.02 672.08 102.8 670.3 116 678.01C116 678.01 148 695.92 148 695.92C148 695.92 207 729 207 729C212.63 732.22 225.95 741.22 232 740.49C232 740.49 256 733.88 256 733.88C256 733.88 291 724.63 291 724.63C291 724.63 312 718.64 312 718.64C312 718.64 345 710 345 710C350.25 708.5 360.76 707.23 364 703C364 703 339 703 339 703C339 703 322 704 322 704C322 704 264 704 264 704C264 704 249 705 249 705C249 705 243 705 243 705C234.92 704.86 230.27 700.25 224.17 695.43C224.17 695.43 198 675.37 198 675.37C198 675.37 175 657.83 175 657.83C171.64 655.49 164.25 650.59 162.74 646.91C161.61 644.18 161.96 632.6 162 629C162 629 163 615 163 615C163 615 163 598 163 598C163 598 164 584 164 584C164 584 164 566 164 566C164 566 164.91 556 164.91 556C165.11 553.09 164.7 548.56 165.58 546C166.65 542.9 171.88 536.93 174.12 534C174.12 534 192.79 510 192.79 510C196.97 504.66 206.98 490.36 212.04 487.41C212.04 487.41 236 477.58 236 477.58C236 477.58 272 463.2 272 463.2C278.78 460.54 289.74 457.55 295 453ZM1093 557C1093 557 1093 539 1093 539C1093 536.96 1093.11 533.89 1092.4 532.02C1090.98 528.27 1079.7 520.51 1076 517.65C1076 517.65 1029 481.15 1029 481.15C1024.01 477.59 1016.32 470.24 1011 468.63C1011 468.63 992 465.73 992 465.73C992 465.73 954 459.92 954 459.92C954 459.92 918 454.87 918 454.87C912.95 454.17 905.72 452.15 901 454C901 454 924 463.4 924 463.4C924 463.4 960 477.8 960 477.8C960 477.8 985.71 488.7 985.71 488.7C985.71 488.7 995.88 501 995.88 501C995.88 501 1010.79 520 1010.79 520C1010.79 520 1030.15 546 1030.15 546C1030.15 546 1031 557 1031 557C1031 557 1093 557 1093 557ZM390 768C390 768 796 768 796 768C806.26 767.98 816.48 765.57 826 761.8C861.66 747.67 884.55 713.17 885 675C885.43 637.91 867.44 602.65 833 586.32C785.66 563.88 724.68 579.08 699.78 627C695.58 635.08 691.74 645.9 691 655C691 655 708 655 708 655C710.38 644.58 714.85 634.63 721.16 626C756.38 577.8 832.75 583.16 859.73 637C865.84 649.19 868.15 661.45 868 675C867.56 712.54 834.67 750.94 796 751C796 751 407 751 407 751C407 751 407 577 407 577C407 577 390 577 390 577C390 577 390 768 390 768ZM665 577C665 577 538 577 538 577C538 577 538 594 538 594C538 594 665 594 665 594C665 594 665 577 665 577ZM1542 701C1552.25 696.84 1561.38 691.69 1568.54 683C1585.62 662.25 1587.37 624.46 1570.48 603C1555.97 584.54 1531.79 577.04 1509 577C1509 577 820 577 820 577C820 577 839 587.86 839 587.86C839 587.86 848 593.3 848 593.3C848 593.3 879 594 879 594C879 594 953 594 953 594C953 594 953 768 953 768C953 768 970 768 970 768C970 768 970 594 970 594C970 594 1428 594 1428 594C1428 594 1456 594 1456 594C1456 594 1478 594 1478 594C1478 594 1511 594 1511 594C1533.11 594.03 1556.72 603.9 1563.08 627C1564.85 633.41 1565.07 637.44 1565 644C1564.94 649.24 1564.05 654.06 1562.3 659C1559.97 665.58 1556.99 670.08 1551.99 674.96C1536.16 690.43 1515.5 690 1495 690C1495 690 1464 690 1464 690C1464 690 1439 690 1439 690C1439 690 1439 768 1439 768C1439 768 1456 768 1456 768C1456 768 1456 707.01 1456 707.01C1456 707.01 1510 707.01 1510 707.01C1513.32 706.99 1521.55 705.81 1523.82 707.01C1526.53 708.51 1532.03 717.09 1534.15 720C1534.15 720 1555.85 750 1555.85 750C1558.75 753.97 1566.08 765.81 1570.09 767.4C1571.89 768.12 1575.02 768 1577 768C1577 768 1600 768 1600 768C1608.32 767.84 1609 762.95 1612 756C1612 756 1623.58 731 1623.58 731C1623.58 731 1663.31 645 1663.31 645C1667.12 636.69 1679.66 612.16 1681 605C1681 605 1688.26 618 1688.26 618C1688.26 618 1700.31 644 1700.31 644C1700.31 644 1737.86 725 1737.86 725C1737.86 725 1751.78 755 1751.78 755C1751.78 755 1758.41 766.98 1758.41 766.98C1758.41 766.98 1777 768 1777 768C1777 768 1770.42 753 1770.42 753C1770.42 753 1752.31 714 1752.31 714C1752.31 714 1709.74 622 1709.74 622C1709.74 622 1697.22 595 1697.22 595C1697.22 595 1689 577 1689 577C1689 577 1675 577 1675 577C1675 577 1664.26 601 1664.26 601C1664.26 601 1650.78 630 1650.78 630C1650.78 630 1608.69 721 1608.69 721C1608.69 721 1589 765 1589 765C1589 765 1542 701 1542 701ZM483 665C483 665 456.06 622 456.06 622C456.06 622 440.67 598.51 440.67 598.51C437.02 595.41 431.51 596 427 596C427 596 427 731 427 731C427 731 540 731 540 731C540 731 532.31 712 532.31 712C532.31 712 528.3 703.21 528.3 703.21C528.3 703.21 522 698 522 698C522 698 532.05 704.08 532.05 704.08C532.05 704.08 543 706.84 543 706.84C543 706.84 551 706.84 551 706.84C551 706.84 560.83 703.56 560.83 703.56C560.83 703.56 566.75 702.52 566.75 702.52C566.75 702.52 573.01 700.17 573.01 700.17C573.01 700.17 595 696 595 696C595 696 597 675 597 675C597 675 550 675 550 675C541.66 675 533.01 676.03 526.04 670.47C516.59 662.93 517.95 652.74 518 642C518.03 635.33 518.67 630.31 523.33 625.09C529.06 618.67 534.96 618.01 543 618C543 618 631 618 631 618C631 618 669 618.68 669 618.68C672.62 619.54 675.67 621.41 679 623C682.74 616.39 683.7 615.26 681 608C676.46 609.73 672.88 612.6 668 613.88C668 613.88 627 613.88 627 613.88C627 613.88 562 613.88 562 613.88C562 613.88 543 613.88 543 613.88C531.89 613.98 525.93 612.11 520 602C520 602 518 602 518 602C518 602 485 665 485 665C485 665 483 665 483 665ZM541 731C541 731 765 731 765 731C775.32 730.98 780.4 726.56 789 721.4C789 721.4 823 701.23 823 701.23C826.83 699.15 843.15 689.93 845.18 687.39C847.35 684.67 848.1 674.61 847.96 671C846.69 638.14 822.95 616.22 791 613.17C771.45 611.3 749.51 621.3 737.92 637C726.21 652.87 729.86 667.35 715 673.39C709.65 675.56 701.82 675.01 696 675C692.37 674.99 689.57 675.07 686 674.06C683.54 673.37 680.26 671.54 678 671.54C675.74 671.54 672.46 673.37 670 674.06C666.43 675.07 663.63 674.99 660 675C660 675 598 675 598 675C598 678.86 597.56 690.86 599.32 693.7C601.11 696.61 608.71 698.24 612 698.99C619.48 700.69 635.09 703.6 641 707C641 707 622.83 703.53 622.83 703.53C622.83 703.53 622 702 622 702C616.05 702.94 604.83 701.7 600 698C600 698 577 703 577 703C577 703 559 705 559 705C555.46 707.72 553.02 707.16 550.64 709.51C548.1 712.01 542.07 727.05 541 731ZM1093 614C1093 614 1033 614 1033 614C1033 614 1034 641 1034 641C1033.94 650.03 1029.01 651.83 1021.91 656.86C1021.91 656.86 1003 671.35 1003 671.35C994.02 678.27 990.02 678.1 990 689C990 689 990 728 990 728C990 728 1007 718.43 1007 718.43C1007 718.43 1026 708.14 1026 708.14C1038.11 701.34 1038.98 702 1039 693C1039 693 1039 642 1039 642C1039.02 637.71 1039.15 633.98 1041.05 630C1047.36 616.74 1059.72 617.94 1072 618C1076.29 618.02 1080.02 618.15 1084 620.05C1087.56 621.74 1090.14 624.38 1093 627C1093 627 1093 614 1093 614ZM665 638C665 638 538 638 538 638C538 638 538 655 538 655C538 655 665 655 665 655C665 655 665 638 665 638ZM1076 638C1076 638 1059 638 1059 638C1059 638 1059 768 1059 768C1059 768 1076 768 1076 768C1076 768 1076 707 1076 707C1076 707 1195 707 1195 707C1195 707 1195 768 1195 768C1195 768 1212 768 1212 768C1212 768 1212 638 1212 638C1212 638 1195 638 1195 638C1195 638 1195 690 1195 690C1195 690 1076 690 1076 690C1076 690 1076 638 1076 638ZM1399 690C1399 690 1268 690 1268 690C1268 690 1268 707 1268 707C1268 707 1399 707 1399 707C1399 707 1399 690 1399 690ZM510 691C510 691 511 691 511 691C511 691 510 692 510 692C510 692 510 691 510 691ZM512 692C512 692 513 692 513 692C513 692 512 693 512 693C512 693 512 692 512 692ZM515 694C515 694 516 694 516 694C516 694 515 695 515 695C515 695 515 694 515 694ZM678 695C678 695 679 695 679 695C679 695 678 696 678 696C678 696 678 695 678 695ZM520 697C520 697 521 697 521 697C521 697 520 698 520 698C520 698 520 697 520 697ZM675 697C675 697 676 697 676 697C676 697 675 698 675 698C675 698 675 697 675 697ZM673 698C673 698 674 698 674 698C674 698 673 699 673 699C673 699 673 698 673 698ZM671 699C671 699 672 700 672 700C672 700 667.7 704.09 667.7 704.09C667.7 704.09 656 730 656 730C656 730 654 730 654 730C654 730 646.03 711.13 646.03 711.13C646.03 711.13 642 706 642 706C642 706 653 708.1 653 708.1C657.68 707.95 667.04 701.72 671 699ZM933 704C933 704 901 704 901 704C901 704 895 722 895 722C895 722 933 732 933 732C933 732 933 704 933 704ZM1399 751C1399 751 1268 751 1268 751C1268 751 1268 768 1268 768C1268 768 1399 768 1399 768C1399 768 1399 751 1399 751ZM675 788C675 788 568 788 568 788C568 788 538 788 538 788C538 788 522 789 522 789C522 789 574 819.8 574 819.8C578.27 822.36 593.15 832.07 597 832.42C601.93 832.87 615.34 823.67 620 820.81C620 820.81 675 788 675 788ZM1400 809C1389.72 804.64 1378.09 801.75 1367 805.22C1355.77 808.73 1349.66 820.25 1355.44 830.99C1362.2 843.55 1383.49 840 1391.77 849.11C1398.26 856.24 1391.27 863.07 1384 865.07C1370.44 868.81 1364.59 862.05 1354 858C1353.35 859.79 1352.32 861.95 1352.81 863.9C1353.74 867.67 1361.56 870.57 1365 871.51C1375.56 874.39 1393.34 874.19 1400.01 863.96C1401.27 862.03 1402.3 859.28 1402.67 857C1406.35 834.52 1375.48 837.26 1366.05 829.58C1356.35 821.67 1364.95 811.57 1377 811.04C1387.66 810.57 1389.8 814.07 1398 816C1398 816 1400 809 1400 809ZM1461 804C1461 804 1406 804 1406 804C1406 804 1406 811 1406 811C1406 811 1429 811 1429 811C1429 811 1429 872 1429 872C1429 872 1437 872 1437 872C1437 872 1437 811 1437 811C1437 811 1461 811 1461 811C1461 811 1461 804 1461 804ZM1478 804C1478 804 1470 804 1470 804C1470 804 1470 845 1470 845C1470.01 852.23 1471.09 859.34 1476.21 864.86C1486.22 875.79 1509.46 876.04 1519.32 864.86C1524.54 858.88 1525.91 850.67 1526 843C1526 843 1526 804 1526 804C1526 804 1518 804 1518 804C1518 804 1518 841 1518 841C1517.97 846.35 1517.37 852.43 1514.3 857C1507.14 867.65 1490.91 868.71 1482.56 858.82C1478.73 854.29 1478.03 848.67 1478 843C1478 843 1478 804 1478 804ZM1546 872C1546 872 1577 872 1577 872C1587.31 871.95 1595.85 868.96 1602.8 860.99C1612.98 849.28 1613.24 827.63 1602.8 816.01C1588.85 800.44 1565 804 1546 804C1546 804 1546 872 1546 872ZM1633 804C1633 804 1625 804 1625 804C1625 804 1625 872 1625 872C1625 872 1633 872 1633 872C1633 872 1633 804 1633 804ZM1677 804.3C1669.04 805.8 1661.92 808.86 1656.47 815.09C1642.72 830.79 1646.29 856.63 1664 867.87C1671.14 872.4 1681.71 873.8 1690 872.71C1719.31 868.85 1728.49 834.45 1711.53 815.09C1702.56 804.84 1689.81 803.03 1677 804.3ZM1777 809C1766.72 804.64 1755.09 801.75 1744 805.22C1732.77 808.73 1726.66 820.25 1732.44 830.99C1739.2 843.55 1760.49 840 1768.77 849.11C1775.26 856.24 1768.27 863.07 1761 865.07C1747.44 868.81 1741.59 862.05 1731 858C1730.35 859.79 1729.32 861.95 1729.81 863.9C1730.74 867.67 1738.56 870.57 1742 871.51C1752.56 874.39 1770.34 874.19 1777.01 863.96C1778.27 862.03 1779.3 859.28 1779.67 857C1783.35 834.52 1752.48 837.26 1743.05 829.58C1733.35 821.67 1741.95 811.57 1754 811.04C1764.66 810.57 1766.8 814.07 1775 816C1775 816 1777 809 1777 809ZM1554 811C1565.78 811 1582.08 809.64 1592 816.79C1607 827.6 1606.23 853.22 1588 862.34C1579.74 866.48 1563.55 865 1554 865C1554 865 1554 811 1554 811ZM1679 811.46C1684.93 810.64 1690.45 811.06 1696 813.53C1719.08 823.8 1716.88 860.13 1689 865.38C1661.9 870.49 1644.7 836.87 1665.04 818.18C1669.58 814.01 1673.15 812.77 1679 811.46Z" fill-rule="nonzero" transform="matrix(1, 0, 0, 1, 0, 0)" fill="#000000" fill-opacity="1" stroke="#000000" stroke-width="4" stroke-linecap="butt" stroke-linejoin="miter" opacity="1" id="path1" />
  <path d="M1319.04 812C1319.04 812 1110 812 1110 812C1107.32 812 1104.6 811.9 1102 812.63C1096.47 814.21 1074.54 827.28 1068 831C1068 831 1010 863.3 1010 863.3C1001.9 867.75 986.08 877.89 978 880.07C973.25 881.36 965.14 881.06 960 881C951.82 880.9 933.82 875.2 925 872.88C925 872.88 859 855.12 859 855.12C859 855.12 829 847 829 847C823.41 846.26 816.76 851.97 812 854.72C812 854.72 773 877.6 773 877.6C773 877.6 655 947.2 655 947.2C655 947.2 627 963.6 627 963.6C618.07 968.96 611.8 973.87 601 974C582.23 974.22 578.8 969.61 563 960.2C563 960.2 533 942.42 533 942.42C533 942.42 424 878.4 424 878.4C424 878.4 387 856.58 387 856.58C387 856.58 371 847.39 371 847.39C366.95 846.07 361.03 848.46 357 849.58C357 849.58 330 857.12 330 857.12C330 857.12 274 872.15 274 872.15C264.26 874.79 244.12 880.89 235 881C235 881 225 881 225 881C213.35 880.86 202.88 873.01 193 867.42C193 867.42 134 834.28 134 834.28C134 834.28 102 816.42 102 816.42C87.23 808.08 79.03 805.94 79 787C79 787 79 531 79 531C79.01 526.36 78.99 522.32 81.05 518C83.91 511.99 88.94 508.52 94 504.58C94 504.58 117 486.88 117 486.88C120.26 484.37 131.55 476.49 132.34 472.96C133.14 469.42 126.2 458.49 124.31 455C124.31 455 105.94 419 105.94 419C104.94 415.52 105.01 412.56 105 409C105 409 105 288 105 288C105.02 274.5 110.81 266.06 116.14 254C116.14 254 143.22 194 143.22 194C143.22 194 162.22 152 162.22 152C165.35 145.32 167.82 137.32 174.04 132.8C179 129.2 183.31 129.36 189 128.58C189 128.58 222 124.84 222 124.84C222 124.84 240 122.29 240 122.29C240 122.29 290 116.84 290 116.84C290 116.84 319 114 319 114C319 114 332 114 332 114C346.11 114.17 349.51 120.89 359 129.96C359 129.96 391 160 391 160C391 160 423 190.09 423 190.09C423 190.09 453 218.91 453 218.91C453 218.91 480 244.04 480 244.04C480 244.04 491 254.83 491 254.83C491 254.83 507.83 270.02 507.83 270.02C507.83 270.02 518.82 281 518.82 281C520.25 282.61 522.81 286.29 524.32 287.16C527.6 289.51 540.55 287.14 545 287.16C545 287.16 575 284.17 575 284.17C575 284.17 605 283 605 283C605 283 633 285.83 633 285.83C633 285.83 653 287.09 653 287.09C656.44 287.32 668.06 289.07 670.68 287.81C670.68 287.81 681 277 681 277C681 277 693 265.91 693 265.91C693 265.91 705 254.17 705 254.17C705 254.17 759 203.09 759 203.09C759 203.09 795 169.04 795 169.04C795 169.04 805 159.99 805 159.99C805 159.99 839 127.83 839 127.83C843.64 123.63 848.13 118 854 115.61C859.67 113.31 872.47 113.93 879 114C879 114 915 117.84 915 117.84C915 117.84 981 125.72 981 125.72C981 125.72 1008 128.72 1008 128.72C1013.41 129.42 1017.26 129.38 1021.96 132.8C1028.8 137.77 1031.84 148.45 1035.31 156C1035.31 156 1058.86 208 1058.86 208C1058.86 208 1079.25 253 1079.25 253C1084.54 264.12 1090.98 275.47 1091 288C1091 288 1091 408 1091 408C1090.98 421.97 1086.02 427.17 1079.78 439C1079.78 439 1061 474 1061 474C1065.97 476.56 1082.74 489.61 1088 493.8C1095.22 499.55 1111.29 510.3 1114.95 518C1117.28 522.89 1117 527.76 1117 533C1117 533 1431 533 1431 533C1431 533 1588 533 1588 533C1588 533 1598.09 531.11 1598.09 531.11C1598.09 531.11 1626 529 1626 529C1626 529 1697 529 1697 529C1697 529 1697 532 1697 532C1697 532 1708 532 1708 532C1710.79 537.28 1714.47 537.91 1719 541.52C1723.02 544.72 1725.97 548.57 1728.54 553C1728.54 553 1733.26 563 1733.26 563C1733.26 563 1748.78 596 1748.78 596C1748.78 596 1794.31 694 1794.31 694C1794.31 694 1812.86 734 1812.86 734C1817.25 743.86 1820.86 748.42 1821 760C1821 760 1821 774 1821 774C1820.94 779.15 1819.83 785.33 1817.6 790C1815.87 793.64 1812.51 797.53 1811.51 801C1810.68 803.88 1811.04 813.4 1811 817C1811 817 1810.07 827.42 1810.07 827.42C1810.6 831.92 1813.94 833.98 1814 846C1814.07 860.37 1815.6 868.66 1808.74 882C1805.81 887.71 1803.1 891.45 1798 895.48C1794.23 898.46 1788.48 901.78 1784 903.54C1777.69 906.01 1771.73 906.99 1765 907C1765 907 1742 907 1742 907C1731.07 906.87 1721.72 902.26 1719 902.26C1716.81 902.26 1712.48 904.16 1710 904.84C1704.66 906.31 1700.53 906.97 1695 906.86C1695 906.86 1667 906.86 1667 906.86C1662.65 906.15 1654.16 903.24 1651 903.7C1651 903.7 1642 905.91 1642 905.91C1642 905.91 1621 905.91 1621 905.91C1610.94 905.95 1609.18 903.49 1605 903.51C1601.02 903.52 1597.36 905.98 1587 906C1587 906 1541 906 1541 906C1532.11 905.89 1530.56 903.47 1526 904.08C1526 904.08 1514 906.91 1514 906.91C1514 906.91 1488 906.91 1488 906.91C1481.39 906.99 1477.33 906.33 1471 904.25C1471 904.25 1462 900.91 1462 900.91C1458.89 900.63 1455.11 903.35 1452 904.45C1447.59 906.02 1444.55 905.99 1440 905.91C1440 905.91 1420 905.91 1420 905.91C1414.45 905.23 1412.01 903.23 1409.58 903.19C1406.74 903.14 1399.68 906.98 1388 907C1388 907 1367 907 1367 907C1349.51 906.97 1325.82 897.64 1319.55 880C1317.38 873.92 1317.93 863.68 1318 857C1318.1 848.52 1320.08 847.14 1320.34 843C1320.34 843 1319.04 833 1319.04 833C1319.04 833 1319.04 812 1319.04 812ZM1109 541C1109 535.76 1109.28 530.89 1106.95 526C1104.09 519.98 1099.05 516.75 1094 512.79C1094 512.79 1069 493.53 1069 493.53C1064.7 490.3 1050.7 480.94 1050.19 475.96C1049.63 470.51 1056.18 460.96 1058.74 456C1058.74 456 1072.31 430 1072.31 430C1078.48 418.59 1082.98 413.47 1083 400C1083 400 1083 296 1083 296C1082.98 282.7 1075.73 270.84 1070.31 259C1070.31 259 1043.26 199 1043.26 199C1043.26 199 1032.69 175 1032.69 175C1032.69 175 1026 161 1026 161C1022.86 153.67 1020 144.61 1012.99 140.14C1008.55 137.32 1004.92 137.36 1000 136.72C1000 136.72 973 133.72 973 133.72C973 133.72 907 125.84 907 125.84C907 125.84 873 122.04 873 122.04C859.23 121.5 856.25 127.46 847 135.83C847 135.83 820 161 820 161C820 161 785 194.04 785 194.04C785 194.04 712 263.09 712 263.09C712 263.09 688 286 688 286C685.76 288.27 680.01 295.49 677.82 296.4C675.82 297.24 669.44 297.02 667 297C667 297 624 293.72 624 293.72C624 293.72 598 291.03 598 291.03C598 291.03 571 293.72 571 293.72C571 293.72 529 297 529 297C526.49 297.03 520.17 297.23 518.09 296.4C515.11 295.21 511.55 289.65 508.96 287.04C508.96 287.04 485 264.58 485 264.58C485 264.58 453 234.04 453 234.04C453 234.04 408 191.91 408 191.91C408 191.91 372 157.83 372 157.83C372 157.83 360 146.04 360 146.04C360 146.04 350 136.99 350 136.99C340.92 128.12 336.78 121.5 323 122.04C323 122.04 298 124.84 298 124.84C298 124.84 249 130.17 249 130.17C249 130.17 230 132.84 230 132.84C230 132.84 202 135.95 202 135.95C196.76 136.54 188.47 137.08 184 139.56C177.23 143.31 174.51 150.28 171.58 157C171.58 157 162 178 162 178C162 178 128.69 252 128.69 252C128.69 252 113.68 287 113.68 287C112.93 290.32 113.01 292.66 113 296C113 296 113 401 113 401C113.01 404.56 112.94 407.52 113.94 411C115.01 414.74 117.92 419.35 119.75 423C119.75 423 136.22 454 136.22 454C139.14 459.54 145.71 470 144.85 476C144.05 481.63 132.59 489 128 492.58C128 492.58 103 511.79 103 511.79C97.68 515.96 92.06 519.67 89.05 526C86.99 530.32 87.01 534.36 87 539C87 539 87 779 87 779C87.01 783.64 86.99 787.68 89.05 792C93.17 800.67 106.66 806.7 115 811.23C115 811.23 190 853.28 190 853.28C196.57 857.01 220.44 871.02 226 872.32C232.02 873.72 239.17 871.36 245 869.71C245 869.71 266 864.15 266 864.15C266 864.15 327 847.71 327 847.71C335.23 845.28 361.94 837.32 369 837.04C378.11 836.68 381.53 840.76 389 845.14C389 845.14 420 863.28 420 863.28C420 863.28 546 937.4 546 937.4C546 937.4 580 957.42 580 957.42C585.03 960.34 592.09 965.4 598 965.4C603.47 965.4 611.25 960.21 616 957.4C616 957.4 650 937.4 650 937.4C650 937.4 717 897.99 717 897.99C717 897.99 776 863.15 776 863.15C776 863.15 806 845.55 806 845.55C813.64 840.97 817.64 836.66 827 837.04C827 837.04 865 846.58 865 846.58C865 846.58 933 864.88 933 864.88C939.14 866.5 961.28 873.09 966 872.79C974.66 872.24 991.92 861 1000 856.42C1000 856.42 1067 819.14 1067 819.14C1073.21 815.65 1088.95 805.69 1095 804.13C1097.12 803.93 1099.81 804 1102 804.13C1102 804.13 1329 804.13 1329 804.13C1329 804.13 1327.04 824 1327.04 824C1327.04 824 1330.88 845 1330.88 845C1330.48 850.78 1326.6 853.85 1326.09 862C1324.69 884.77 1353.56 898.77 1373 899C1373 899 1382 899 1382 899C1387.37 898.93 1392.94 897.72 1398 895.91C1402.13 894.43 1405.43 892.02 1410 892.1C1414.62 892.17 1417.8 894.96 1422 896.45C1426.73 898.14 1434.04 898.43 1439 897.7C1443.46 897.04 1447.24 895.33 1451 892.9C1454.2 890.83 1456.9 888.01 1461 888.19C1464.73 888.35 1471.06 892.91 1475 894.69C1481.69 897.7 1488.71 898.99 1496 899C1503.64 899.01 1506.43 899.32 1514 897.09C1519.69 895.41 1522.64 892.57 1529 893.11C1534.57 893.58 1536.99 896.67 1544 897.85C1544 897.85 1579 897.85 1579 897.85C1585.65 897.99 1589.63 897.34 1596 895.25C1599.24 894.19 1602.6 892.24 1606 892.16C1610.42 892.05 1613.99 895.03 1618 896.45C1622.41 898.02 1626.39 898.1 1631 897.99C1643.14 897.69 1645.38 891.99 1652 892.16C1655.6 892.24 1660.43 894.88 1664 896.14C1669.1 897.93 1674.6 898.93 1680 899C1688.96 899.1 1694.21 899.19 1703 896.56C1708.68 894.86 1713.52 891.08 1719 891.08C1724.07 891.08 1727.48 893.77 1732 895.54C1737.33 897.62 1744.28 898.93 1750 899C1750 899 1758 899 1758 899C1776 898.91 1793.13 889.23 1801.24 873C1803.88 867.72 1805.69 862.98 1805.96 857C1806.24 850.79 1805.82 845.85 1803.54 840C1801.7 835.3 1798.58 831.32 1799.23 826C1799.81 821.21 1803.43 817.45 1802.91 809C1802.62 804.32 1800.2 799.2 1801.59 795C1802.45 792.38 1806.77 787.08 1808.53 784C1812.01 777.93 1813.76 768.92 1812.54 762C1810.99 753.24 1804.3 740.37 1800.26 732C1800.26 732 1779.31 687 1779.31 687C1779.31 687 1740.31 603 1740.31 603C1740.31 603 1725.26 571 1725.26 571C1725.26 571 1720.54 561 1720.54 561C1717.97 556.57 1715.02 552.72 1711 549.52C1706.47 545.91 1702.79 545.28 1700 540C1700 540 1689 540 1689 540C1689 540 1689 537 1689 537C1689 537 1634 537 1634 537C1634 537 1606.09 539.11 1606.09 539.11C1606.09 539.11 1594 541 1594 541C1594 541 1109 541 1109 541ZM190 154C190 154 223 150.16 223 150.16C223 150.16 289 142.84 289 142.84C289 142.84 316 139.83 316 139.83C319.94 139.4 324.06 138 328 139.18C332.78 140.62 339.14 148.32 343 151.91C343 151.91 378 184.99 378 184.99C378 184.99 407 212.04 407 212.04C407 212.04 455 257.91 455 257.91C455 257.91 499 300 499 300C499 300 481 288.34 481 288.34C481 288.34 449 267.33 449 267.33C449 267.33 380 222 380 222C380 222 352 203.28 352 203.28C348.25 200.66 337.94 193.46 334 192.12C331.8 191.56 323.86 191.97 321 192.12C321 192.12 304 193 304 193C304 193 294 193.91 294 193.91C294 193.91 263 195.72 263 195.72C259.57 196.12 251.77 195.5 249.39 197.02C247.05 198.51 244.55 204.38 243.25 207C243.25 207 230.76 233 230.76 233C230.76 233 214.74 267 214.74 267C212.1 272.47 205.94 283.47 205.21 289C205.21 289 207.96 324 207.96 324C208.26 330.82 208.76 353.06 211.43 358C214.05 362.84 230.11 378.11 235 383C235 383 276 424 276 424C281.94 429.94 293.55 440.78 298 447C298 447 262 429.25 262 429.25C262 429.25 219 408.25 219 408.25C212.07 404.78 186.56 393.33 182.63 389.37C180.47 387.18 175.46 377.25 173.69 374C173.69 374 154.14 337 154.14 337C154.14 337 136.69 304 136.69 304C134.49 299.93 130 293.69 130.48 289C130.83 285.55 134.61 278.44 136.14 275C136.14 275 148.74 247 148.74 247C148.74 247 173.3 192 173.3 192C173.3 192 190 154 190 154ZM698 299C702.16 293.2 706.98 289.96 712 285C712 285 745 253.83 745 253.83C745 253.83 758 241.09 758 241.09C758 241.09 820 182.91 820 182.91C820 182.91 832 171.09 832 171.09C832 171.09 851 153.99 851 153.99C855.08 150.01 862.85 141.05 868 139.51C872.51 138.16 893.01 141.28 899 141.95C899 141.95 971 150 971 150C971 150 996 153 996 153C998.65 153.51 1003.43 153.87 1005.36 155.6C1007.59 157.59 1013.9 173.12 1015.75 177C1015.75 177 1041.42 234 1041.42 234C1041.42 234 1059.31 274 1059.31 274C1061.4 278.58 1066.44 287.08 1065.32 292C1065.32 292 1052.78 316 1052.78 316C1052.78 316 1027 365 1027 365C1024.16 370 1015.85 387.52 1012.61 390.3C1012.61 390.3 1001 396.25 1001 396.25C1001 396.25 977 408.25 977 408.25C977 408.25 946 423.25 946 423.25C946 423.25 899 446 899 446C903.45 439.78 915.06 428.94 921 423C921 423 962 382 962 382C966.21 377.79 982.98 361.75 985.02 358C987.49 353.45 987.65 333.35 988.09 327C988.09 327 990.01 298 990.01 298C990.09 294.95 991.03 290.62 990.57 288C990.57 288 982.24 269 982.24 269C982.24 269 965.31 234 965.31 234C965.31 234 953.42 209 953.42 209C952.08 205.92 949.35 198.77 946.61 197.02C944.42 195.62 939.64 196.03 937 196C937 196 927 195.09 927 195.09C927 195.09 904 194 904 194C904 194 894 193 894 193C894 193 884 193 884 193C884 193 872 192 872 192C869.47 191.98 863.99 191.44 862 192C859.13 192.82 849.17 199.91 846 202C846 202 813 223.67 813 223.67C813 223.67 746 267.67 746 267.67C746 267.67 698 299 698 299ZM367 342C375.13 340.93 373.92 341.09 382 341C382 341 397 340 397 340C397 340 418 339 418 339C418 339 431 338 431 338C437.32 337.93 443.79 337.84 450 336.48C450 336.48 495 319.95 495 319.95C495 319.95 505 316.08 505 316.08C505 316.08 539 312.83 539 312.83C539 312.83 598 308.03 598 308.03C598 308.03 607 308.91 607 308.91C607 308.91 644 311.91 644 311.91C655.65 312.71 681.83 314.06 692 316.75C692 316.75 746 336.48 746 336.48C752.22 337.83 758.67 337.93 765 338C765 338 797 340 797 340C797 340 810 340.91 810 340.91C810 340.91 828 342 828 342C828 342 805 365 805 365C805 365 869 399.36 869 399.36C869 399.36 889 410 889 410C886.13 416.07 882.73 417.7 878 422.09C872.74 426.96 865.09 434.73 859 438C859 438 859 440 859 440C859 440 885 450.72 885 450.72C885 450.72 917 463.99 917 463.99C917 463.99 956 481 956 481C956 481 906 514.98 906 514.98C906 514.98 879 534 879 534C879 534 907 536.71 907 536.71C907 536.71 928 538.83 928 538.83C928 538.83 958 541.83 958 541.83C958 541.83 978 544 978 544C975.04 547.79 966.55 554.97 962 556.44C962 556.44 933 557 933 557C933 557 834 557 834 557C835.35 552.96 838.55 541.11 841.42 538.74C843.7 536.85 853.77 535.27 857 535C857 535 842.58 517 842.58 517C842.58 517 836.93 508 836.93 508C836.93 508 844 495 844 495C844 495 865 463 865 463C865 463 808 483 808 483C808 483 796 465 796 465C793.36 469.92 780.61 485.24 776 487.91C772.39 490.01 754.28 494.05 749 495.37C749 495.37 726 501.63 726 501.63C726 501.63 693 510 693 510C693 510 688 498 688 498C688 498 686 498 686 498C686 498 674.3 526 674.3 526C674.3 526 661 557 661 557C661 557 653 544 653 544C653 544 650 557 650 557C650 557 546 557 546 557C546 557 543 544 543 544C543 544 535 557 535 557C535 557 519.72 522 519.72 522C519.72 522 510 498 510 498C510 498 508 498 508 498C508 498 503 510 503 510C503 510 462 499.63 462 499.63C462 499.63 447 495.37 447 495.37C447 495.37 420 488.07 420 488.07C420 488.07 398 466 398 466C398 466 388 483 388 483C388 483 330 463 330 463C330 463 351.72 495 351.72 495C353.75 497.91 359.29 504.55 359.02 508C358.82 510.65 355.23 514.87 353.58 517C353.58 517 339 535 339 535C339 535 355.16 538.85 355.16 538.85C355.16 538.85 360.28 552 360.28 552C360.28 552 369.92 580.17 369.92 580.17C369.92 580.17 369.92 586 369.92 586C369.92 586 369.92 698 369.92 698C369.92 698 324 671.28 324 671.28C317.44 667.5 301.38 659.01 297 654C297 654 320 638.69 320 638.69C322.1 637.33 326.96 634.83 326.96 632C326.96 629.54 322.76 626.55 321 625.08C321 625.08 300 608.4 300 608.4C300 608.4 245 565.88 245 565.88C245 565.88 217 544 217 544C217 544 278 537.83 278 537.83C278 537.83 317 534 317 534C317 534 240 481 240 481C240 481 274 466.13 274 466.13C274 466.13 311 450.57 311 450.57C311 450.57 337 440 337 440C337 440 306 411 306 411C306 411 325 400.69 325 400.69C325 400.69 360 381.78 360 381.78C360 381.78 391 364 391 364C391 364 367 342 367 342ZM361 705C361 705 333 712.12 333 712.12C333 712.12 265 730.37 265 730.37C265 730.37 240 737.37 240 737.37C237 738.14 231.94 739.72 229 739.19C225.85 738.62 209.96 729.35 206 727.14C206 727.14 157 699.58 157 699.58C157 699.58 119 678.3 119 678.3C104.98 670.61 104.02 671.86 104 662C104 662 104 539 104 539C104.02 529.23 104.27 531.3 116 522C116 522 140 503.2 140 503.2C140 503.2 168 481.35 168 481.35C171.43 478.7 180.51 471.42 184 470C184 470 209 466 209 466C209 466 251 459.72 251 459.72C251 459.72 278 455.87 278 455.87C282.09 455.3 287.01 453.87 291 455C291 455 238 475.6 238 475.6C232.57 477.77 213.56 484.85 210.01 487.5C206.29 490.27 199.31 499.86 196.12 504C196.12 504 173.71 533 173.71 533C167.64 541.38 164.02 542.38 164 553C164 553 164 567 164 567C164 567 162 599 162 599C162 599 162 615 162 615C162 615 161 629 161 629C161 629 161 640 161 640C161 642.02 160.88 645.11 161.6 646.96C163.13 650.95 175.09 659.19 179 662.13C179 662.13 217 690.89 217 690.89C220.95 693.85 233.36 704.17 237 705.42C239.39 706.24 245.24 706.01 248 706C248 706 264 705 264 705C264 705 322 705 322 705C322 705 334 704.04 334 704.04C334 704.04 349 704.04 349 704.04C353 704 357.24 703.51 361 705ZM905 454C905 454 962 462.13 962 462.13C962 462.13 971 463.84 971 463.84C971 463.84 999 467.73 999 467.73C1002.18 468.19 1009.35 468.95 1012 470C1016.26 471.69 1024.03 478.48 1028 481.58C1028 481.58 1055 502.6 1055 502.6C1055 502.6 1082 523.42 1082 523.42C1087.85 527.98 1091.85 529.22 1092 537C1092 537 1092 557 1092 557C1092 557 1032 557 1032 557C1032 557 1031.28 546 1031.28 546C1031.28 546 1013.65 522 1013.65 522C1013.65 522 997.37 501 997.37 501C997.37 501 984.99 486.99 984.99 486.99C984.99 486.99 960 476.58 960 476.58C960 476.58 925 462.6 925 462.6C925 462.6 905 454 905 454ZM692 654C694.36 641.46 698.57 630.78 705.44 620C731.92 578.39 791.07 565.74 834 588.32C853.29 598.47 866.66 613.28 875.69 633C881.52 645.72 884.16 661.06 884 675C883.55 712.93 861.5 746.73 826 760.8C816.48 764.57 806.26 766.98 796 767C796 767 391 767 391 767C391 767 391 578 391 578C391 578 406 578 406 578C406 578 406 752 406 752C406 752 797 752 797 752C835.67 751.94 868.56 713.54 869 676C869.12 665.67 868.44 656.93 865.25 647C855.13 615.45 824.2 592.39 791 592C763.94 591.69 744.89 599.26 726.04 619C720.86 624.42 715.49 632.13 712.44 639C711.18 641.84 708.18 651.6 706.3 653.01C704.24 654.56 694.94 654 692 654ZM539 578C539 578 664 578 664 578C664 578 664 593 664 593C664 593 539 593 539 593C539 593 539 578 539 578ZM823 578C823 578 1407 578 1407 578C1407 578 1442 578 1442 578C1442 578 1469 578 1469 578C1504.18 578 1547.72 573.09 1570.96 606C1574.34 610.79 1576.48 615.37 1578.09 621C1580.64 629.9 1581.1 635.85 1581 645C1580.82 660.47 1574.8 677.34 1562.99 687.7C1559.3 690.94 1554.37 694.23 1550 696.48C1548.02 697.49 1543.96 699.04 1543.16 701.22C1542 704.35 1550.9 715.06 1553 718C1553 718 1576.85 751 1576.85 751C1580.7 756.28 1584 763.02 1590 766C1590 766 1609.69 722 1609.69 722C1609.69 722 1651.78 631 1651.78 631C1651.78 631 1665.26 602 1665.26 602C1665.26 602 1676 578 1676 578C1676 578 1688 578 1688 578C1688 578 1696.22 596 1696.22 596C1696.22 596 1708.74 623 1708.74 623C1708.74 623 1751.31 715 1751.31 715C1751.31 715 1775 767 1775 767C1775 767 1759.41 765.98 1759.41 765.98C1759.41 765.98 1753.26 755 1753.26 755C1753.26 755 1739.78 726 1739.78 726C1739.78 726 1701.31 643 1701.31 643C1701.31 643 1688.78 616 1688.78 616C1688.78 616 1681 602 1681 602C1679.89 609.08 1677.65 611.74 1674.86 618C1674.86 618 1662.31 645 1662.31 645C1662.31 645 1623.42 729 1623.42 729C1623.42 729 1611 756 1611 756C1608.15 762.59 1607.74 766.87 1600 767C1600 767 1578 767 1578 767C1576.02 767 1572.89 767.12 1571.09 766.4C1567.04 764.79 1559.12 752.08 1556.12 748C1556.12 748 1535.15 719 1535.15 719C1533.01 716.07 1527.54 707.54 1524.82 706.01C1522.28 704.62 1513.67 705.99 1510 706.01C1510 706.01 1455 706.01 1455 706.01C1455 706.01 1455 767 1455 767C1455 767 1440 767 1440 767C1440 767 1440 691 1440 691C1440 691 1510 691 1510 691C1523.48 690.94 1539.47 687.46 1550 678.68C1554.27 675.11 1558.04 670.92 1560.68 666C1569.79 649.03 1567.76 622.12 1553.83 608.17C1543.28 597.61 1526.59 593.02 1512 593C1512 593 969 593 969 593C969 593 969 767 969 767C969 767 954 767 954 767C954 767 954 593 954 593C954 593 857 593 857 593C844.82 592.98 845.17 589.47 835 583.86C835 583.86 823 578 823 578ZM427 597C430.74 597 436.42 596.51 439.48 598.82C442.34 600.99 450.55 615.05 453.05 619C453.05 619 472.05 649 472.05 649C475.14 653.93 480.02 660.83 482 666C488.32 662.84 492.05 653.2 495.26 647C495.26 647 519 603 519 603C523.09 606.36 525.91 610.32 531 612.39C537.6 615.07 560.61 614 569 614C569 614 637 614 637 614C644.58 614 664.93 614.83 671 612.75C674.21 611.66 677.05 609.64 680 608C683.16 615.56 683.09 615.77 679 623C675.67 621.41 672.62 619.54 669 618.68C669 618.68 631 618 631 618C631 618 543 618 543 618C525.98 618.03 518.03 625.98 518 643C517.99 650.79 517.04 659.27 521.8 665.99C526.7 672.89 532.91 674.9 541 675C541 675 596 675 596 675C595.99 678.45 595.57 691.1 593.4 693.27C591.53 695.13 582.92 696.58 580 697.21C580 697.21 555 702.79 555 702.79C551.24 703.6 545.67 705.3 542 704.6C538.85 703.99 533.22 700.78 530 699.31C530 699.31 506 688 506 688C510.11 695.12 520.75 696.75 526.36 702.61C528.6 704.94 529.96 709.03 531.3 712C533.92 717.79 537.37 724.97 539 731C539 731 427 731 427 731C427 731 427 597 427 597ZM599 675C599 675 660 675 660 675C663.63 674.99 666.43 675.07 670 674.06C672.46 673.37 675.74 671.54 678 671.54C682.02 671.54 683.18 674.94 695 675C700.94 675.03 709.6 675.58 715 673.39C730.46 667.1 725.84 651.76 739.47 635C754.03 617.09 776.78 610.54 799 614.28C827.39 619.06 849.08 645.06 847.96 674C847.86 676.51 847.09 683.64 845.83 685.61C844.47 687.73 840.23 689.87 838 691.2C838 691.2 819 702.4 819 702.4C819 702.4 786 721.99 786 721.99C777.06 727.25 773.56 730.98 763 731C763 731 657 731 657 731C657 731 664.69 712 664.69 712C664.69 712 670.27 701.79 670.27 701.79C670.27 701.79 690 689 690 689C690 689 655 706.14 655 706.14C655 706.14 637 702.87 637 702.87C637 702.87 600 694 600 694C600 694 599 675 599 675ZM1034 614C1034 614 1092 614 1092 614C1092 614 1092 625 1092 625C1078.69 616.68 1079.36 617.98 1064 618C1053.68 618.02 1044.92 620.41 1040.61 631C1038.36 636.54 1039 645.85 1039 652C1039 652 1039 692 1039 692C1039 694.65 1039.41 697.99 1037.43 700.04C1037.43 700.04 1023 708.58 1023 708.58C1016.27 712.39 996.02 724.24 990 726C990 726 990 691 990 691C990.02 679.93 994.4 679.11 1003 672.63C1003 672.63 1023 657.35 1023 657.35C1029.45 652.39 1034.84 650.67 1035 642C1035 642 1034 614 1034 614ZM539 639C539 639 664 639 664 639C664 639 664 654 664 654C664 654 539 654 539 654C539 654 539 639 539 639ZM1060 639C1060 639 1075 639 1075 639C1075 639 1075 691 1075 691C1075 691 1196 691 1196 691C1196 691 1196 639 1196 639C1196 639 1211 639 1211 639C1211 639 1211 767 1211 767C1211 767 1196 767 1196 767C1196 767 1196 706 1196 706C1196 706 1075 706 1075 706C1075 706 1075 767 1075 767C1075 767 1060 767 1060 767C1060 767 1060 639 1060 639ZM1269 691C1269 691 1398 691 1398 691C1398 691 1398 706 1398 706C1398 706 1269 706 1269 706C1269 706 1269 691 1269 691ZM542 731C542 731 551.65 709.9 551.65 709.9C551.65 709.9 573 704.8 573 704.8C573 704.8 599 700.53 599 700.53C599 700.53 645 709 645 709C645 709 654 731 654 731C654 731 542 731 542 731ZM896 721C896 721 901.72 705.99 901.72 705.99C901.72 705.99 908 705 908 705C908 705 933 705 933 705C933 705 933 731 933 731C933 731 896 721 896 721ZM1269 752C1269 752 1398 752 1398 752C1398 752 1398 767 1398 767C1398 767 1269 767 1269 767C1269 767 1269 752 1269 752ZM524 788C524 788 627 788 627 788C627 788 657 788 657 788C657 788 672 789 672 789C672 789 621 818.86 621 818.86C616.68 821.39 602.95 830.62 599 831.15C594.25 831.8 582.33 823.66 578 820.95C578 820.95 541 799.2 541 799.2C535.85 796.12 528.04 792.12 524 788ZM1355 859C1364.6 864.36 1373.56 869.49 1385 865.78C1389.52 864.31 1394.09 860.96 1395.02 856C1396.22 849.56 1390.18 845.65 1385 843.71C1375.53 840.16 1359.64 839.74 1355.34 829C1351.36 819.04 1357.3 809.44 1367 806.11C1376.3 802.92 1390.51 805.31 1399 810C1399 810 1397 815 1397 815C1387.42 810.94 1375.52 806.59 1366.04 813.65C1363.51 815.53 1361.72 817.82 1361.24 821C1360.22 827.75 1365.44 831.21 1371 833.29C1380.42 836.82 1396.31 837.47 1400.77 848C1405.14 858.3 1397.87 868.01 1388 870.96C1375.66 874.64 1363.83 870.72 1353 865C1353 865 1355 859 1355 859ZM1406 805C1406 805 1460 805 1460 805C1460 805 1460 811 1460 811C1460 811 1437 811 1437 811C1437 811 1437 872 1437 872C1437 872 1430 872 1430 872C1430 872 1430 811 1430 811C1430 811 1413 811 1413 811C1413 811 1407.6 809.98 1407.6 809.98C1407.6 809.98 1406 805 1406 805ZM1470 805C1470 805 1477 805 1477 805C1477 805 1477 842 1477 842C1477.03 848.43 1477.86 854.89 1482.34 859.9C1490.39 868.9 1506.81 868.62 1514.2 858.91C1517.85 854.11 1518.93 846.89 1519 841C1519 841 1519 805 1519 805C1519 805 1525 805 1525 805C1525 805 1525 844 1525 844C1524.92 850.93 1523.55 858.64 1518.79 863.93C1509.11 874.77 1485.96 875.17 1476.53 863.93C1471.84 858.31 1471.6 853.77 1470.72 847C1470.72 847 1470 805 1470 805ZM1547 805C1559.76 805 1580.85 803.39 1592 808.82C1614.66 819.87 1615.51 852.57 1596 865.64C1583.26 874.17 1562.07 872 1547 872C1547 872 1547 805 1547 805ZM1626 805C1626 805 1632 805 1632 805C1632 805 1632 872 1632 872C1632 872 1626 872 1626 872C1626 872 1626 805 1626 805ZM1675 805.52C1684.2 804.06 1694.79 804.6 1703 809.36C1721.29 819.98 1724.38 846.97 1709.91 861.96C1701.62 870.55 1693.39 872.13 1682 872C1656.3 871.7 1640.11 843.17 1653.48 821C1658.58 812.55 1665.67 808.02 1675 805.52ZM1732 859C1741.6 864.36 1750.56 869.49 1762 865.78C1766.52 864.31 1771.09 860.96 1772.02 856C1773.22 849.56 1767.18 845.65 1762 843.71C1752.53 840.16 1736.64 839.74 1732.34 829C1728.36 819.04 1734.3 809.44 1744 806.11C1753.3 802.92 1767.51 805.31 1776 810C1776 810 1774 815 1774 815C1764.42 810.94 1752.52 806.59 1743.04 813.65C1740.51 815.53 1738.72 817.82 1738.24 821C1737.22 827.75 1742.44 831.21 1748 833.29C1757.42 836.82 1773.31 837.47 1777.77 848C1782.14 858.3 1774.87 868.01 1765 870.96C1752.66 874.64 1740.83 870.72 1730 865C1730 865 1732 859 1732 859ZM1681 810.29C1669.99 812.11 1662.17 816.21 1657.53 827C1649.25 846.24 1664.84 868.66 1686 866.53C1690.7 866.06 1696.04 864.79 1700 862.15C1713.9 852.87 1716.87 831.64 1705.53 819.17C1699.34 812.37 1690 809.52 1681 810.29ZM1553 866C1564.01 866 1581.78 867.72 1591 861.87C1608.05 851.05 1607.13 823.11 1589 813.83C1580.56 809.52 1562.87 811 1553 811C1553 811 1553 866 1553 866Z" fill-rule="nonzero" transform="matrix(1, 0, 0, 1, 0, 0)" fill="#ffffff" fill-opacity="1" stroke="#ffffff" stroke-width="1" stroke-linecap="butt" stroke-linejoin="miter" opacity="1" id="path2" />
</svg>